<svg xmlns="http://www.w3.org/2000/svg" width="152" height="36" fill="none" viewBox="0 0 152 36">
  <path fill="#0f172a" d="M4 28V8.2h5.52c1.68 0 3.04.48 4.06 1.42 1.04.94 1.56 2.2 1.56 3.78 0 1.12-.26 2.1-.78 2.94a5.1 5.1 0 0 1-2.14 1.96l3.52 9.7H8.96l-3.1-9.06H8.9V28H4Zm4.9-12.52h.62c.76 0 1.34-.2 1.74-.6.42-.42.62-.98.62-1.68 0-.7-.2-1.26-.6-1.66-.4-.42-.98-.64-1.76-.64h-.62v4.58ZM26.38 28.32c-1.83 0-3.28-.43-4.36-1.3-1.06-.88-1.6-2.13-1.6-3.76h4.5c0 .48.14.84.42 1.08.3.22.72.34 1.26.34.46 0 .8-.1 1.02-.3.24-.22.36-.5.36-.86 0-.38-.16-.68-.48-.9-.3-.22-.86-.46-1.68-.72-1.34-.42-2.42-.88-3.24-1.38a5.5 5.5 0 0 1-2.94-3.06c-.26-.82-.4-1.76-.4-2.82 0-1.64.54-2.92 1.62-3.84 1.1-.94 2.56-1.4 4.38-1.4 1.76 0 3.14.44 4.16 1.32 1.04.86 1.58 2.02 1.62 3.48h-4.54c-.02-.44-.16-.78-.42-1.02-.24-.26-.62-.4-1.14-.4-.4 0-.7.1-.9.32-.2.2-.3.46-.3.78 0 .38.16.68.46.9.32.22.94.48 1.86.78 1.28.4 2.3.84 3.06 1.32a4.8 4.8 0 0 1 2.16 2.52c.32.78.48 1.66.48 2.64 0 1.12-.22 2.1-.66 2.94a4.6 4.6 0 0 1-1.92 1.96c-.84.48-1.86.72-3.06.72Z"/>
  <path fill="#0f172a" d="M48.2 28V8.2H61v4.1H53.1v3.52h6.96v4.08H53.1V28H48.2Zm17.03.32c-1.4 0-2.64-.28-3.72-.84a6.2 6.2 0 0 1-2.48-2.4c-.6-1.04-.9-2.26-.9-3.66V8.2h4.92v12.92c0 .64.16 1.12.48 1.44.34.32.8.48 1.38.48.58 0 1.04-.16 1.36-.48.34-.32.52-.8.52-1.44V8.2h4.9v13.22c0 1.4-.32 2.62-.96 3.66a6.1 6.1 0 0 1-2.5 2.4c-1.08.56-2.32.84-3.7.84Zm19.83-.32-5.66-9.62V28h-4.74V8.2h4.48l5.68 9.66V8.2h4.74V28h-4.5Zm10.55 0V8.2h8.66c1.68 0 3 .44 3.96 1.32.98.86 1.46 2.04 1.46 3.54 0 1.1-.26 2.02-.78 2.76-.52.74-1.26 1.26-2.22 1.56L128.42 28h-5.38l-3.54-9.48h-1.86V28h-4.9Zm4.9-13.24h2.02c.5 0 .86-.12 1.08-.38.24-.26.36-.6.36-1.02 0-.42-.12-.76-.36-1.02-.22-.28-.58-.42-1.08-.42h-2.02v2.84Z"/>
  <path fill="#2ecc71" d="M134.92 8.2H152v4.06h-5.58v15.74h-5.52V12.26h-5.98V8.2Z"/>
</svg>
